# xmcd
#
# Track frame offsets:
#	150
#	3694
#	11709
#	41565
#	59857
#	79328
#	92858
#	105885
#	119887
#	140646
#	152885
#	168283
#	182939
#	192646
#
# Disc length: 2753 seconds
#
# Revision: 0
# Processed by: cddbd v1.5.2PL0 Copyright (c) Steve Scherf et al.
# Submitted via: EZCDAudioConverter 2.1.7.1
#
DISCID=ce0abf0e
DTITLE=Calibro 35 - CLBR35 Live From S.P.A.C.E.
DYEAR=1900
DGENRE=
TTITLE0=Neptune
TTITLE1=Serenade For A Satellite
TTITLE2=An Asteroid Called Death
TTITLE3=S.P.A.C.E.
TTITLE4=Ungwana Bay Launch Complex
TTITLE5=CLBR35
TTITLE6=A Future We Never Lived
TTITLE7=Across The 111th Sun
TTITLE8=Something Happened On Planet Earth
TTITLE9=Eurocrime
TTITLE10=A Fistful Of Lead
TTITLE11=La Mala Ordina
TTITLE12=Notte In Bovisa
TTITLE13=Said
EXTD=
EXTT0=
EXTT1=
EXTT2=
EXTT3=
EXTT4=
EXTT5=
EXTT6=
EXTT7=
EXTT8=
EXTT9=
EXTT10=
EXTT11=
EXTT12=
EXTT13=
PLAYORDER=
